<?xml version="1.0" standalone="no"?>
<!DOCTYPE svg PUBLIC "-//W3C//DTD SVG 20010904//EN"
 "http://www.w3.org/TR/2001/REC-SVG-20010904/DTD/svg10.dtd">
<svg version="1.0" xmlns="http://www.w3.org/2000/svg"
 width="1024.000000pt" height="1024.000000pt" viewBox="0 0 1024.000000 1024.000000"
 preserveAspectRatio="xMidYMid meet">

<g transform="translate(0.000000,1024.000000) scale(0.100000,-0.100000)"
fill="#000000" stroke="none">
<path d="M0 7248 l1 -2993 32 35 c73 78 148 112 241 109 82 -2 156 -31 216
-85 112 -102 56 -310 -105 -388 -116 -57 -270 -21 -346 81 -13 18 -27 33 -31
33 -5 0 -8 -909 -8 -2020 l0 -2020 5120 0 5120 0 0 5120 0 5120 -5120 0 -5120
0 0 -2992z m5387 1506 c-3 -3 -12 -4 -19 -1 -8 3 -5 6 6 6 11 1 17 -2 13 -5z
m143 -14 c-8 -5 -19 -10 -25 -10 -5 0 -3 5 5 10 8 5 20 10 25 10 6 0 3 -5 -5
-10z m349 -60 c11 -7 2 -8 -29 -4 -25 4 -52 11 -60 16 -10 6 0 7 29 3 24 -3
51 -10 60 -15z m156 -34 c291 -78 622 -215 870 -359 69 -40 258 -161 279 -178
117 -97 316 -205 531 -290 44 -17 103 -40 130 -51 28 -11 75 -28 105 -37 30
-9 55 -23 54 -29 -1 -7 -3 -159 -4 -339 -2 -202 -6 -295 -10 -243 -6 83 -6 83
-8 22 -5 -153 -42 -357 -42 -229 0 26 -4 47 -10 47 -5 0 -9 -34 -9 -76 0 -42
-2 -78 -5 -82 -3 -3 -6 120 -7 274 0 153 0 329 -1 389 0 120 -8 155 -35 155
-22 0 -174 57 -266 99 -37 17 -70 31 -73 31 -3 0 -20 6 -37 14 -18 8 -66 29
-107 47 -41 17 -122 65 -179 107 -117 84 -263 180 -378 248 -163 97 -506 251
-665 300 -32 10 -58 22 -58 26 0 4 -12 8 -27 8 -23 0 -25 2 -13 11 12 8 10 10
-10 5 -13 -3 -45 0 -70 6 l-45 12 39 8 c27 6 42 5 47 -3 5 -8 8 -8 13 0 4 6 1
13 -6 15 -41 13 -48 16 -46 25 2 5 -6 17 -17 25 -11 8 -15 16 -8 16 6 0 15 -5
18 -10 7 -12 25 -4 25 11 0 5 -10 9 -22 9 -19 0 -20 2 -8 10 12 8 11 10 -7 10
-12 0 -30 3 -40 6 -12 4 -14 3 -6 -3 7 -5 9 -14 5 -20 -5 -7 -11 -3 -19 13
-10 21 -9 24 10 24 12 0 63 -11 112 -24z m-191 -1 c-4 -8 -11 -15 -16 -15 -6
0 -5 6 2 15 7 8 14 15 16 15 2 0 1 -7 -2 -15z m3759 3 c4 -10 8 -10 15 0 7 11
10 10 16 -3 3 -9 3 -22 -1 -27 -3 -7 -1 -8 5 -4 8 5 12 -2 12 -22 0 -23 -8
-33 -39 -50 -33 -19 -43 -21 -65 -11 -32 15 -42 44 -22 65 9 8 16 21 16 27 0
7 10 17 23 23 30 16 35 16 40 2z m-5454 -32 c9 -11 7 -12 -12 -9 -12 3 -46 -5
-75 -16 -29 -12 -62 -21 -73 -21 -11 0 -18 -4 -15 -9 4 -5 -4 -7 -15 -4 -19 5
-18 7 12 19 34 13 149 50 160 53 4 0 12 -5 18 -13z m1456 4 c-3 -6 4 -10 16
-10 12 0 20 -3 16 -6 -3 -4 -23 -3 -44 1 -36 8 -37 8 -13 15 14 5 26 8 28 9 2
1 0 -3 -3 -9z m102 -6 c-3 -3 -12 -4 -19 -1 -8 3 -5 6 6 6 11 1 17 -2 13 -5z
m-1583 -21 c3 -4 -6 -13 -21 -20 -25 -12 -25 -13 -4 -9 33 7 74 -11 67 -29 -3
-8 0 -18 7 -22 7 -4 1 -10 -18 -14 -17 -4 -57 -17 -90 -29 -33 -11 -67 -19
-75 -17 -8 3 0 8 18 12 23 5 30 11 23 18 -7 7 -15 6 -24 -2 -9 -7 -23 -8 -37
-3 -19 7 -20 9 -6 21 15 13 27 12 71 -4 19 -7 19 -7 2 6 -17 14 -17 15 3 37
l21 22 -23 0 c-17 1 -13 4 15 15 21 7 41 16 44 19 8 8 18 8 27 -1z m1694 -13
c7 0 10 -5 7 -10 -4 -7 -13 -6 -26 1 -11 6 -27 8 -35 5 -9 -4 -12 -2 -8 5 3 6
16 8 28 5 11 -3 27 -6 34 -6z m62 -20 c13 -9 13 -10 0 -10 -8 0 -22 5 -30 10
-13 9 -13 10 0 10 8 0 22 -5 30 -10z m50 -10 c0 -5 -8 -10 -17 -10 -15 0 -16
2 -3 10 19 12 20 12 20 0z m-1617 -7 c-7 -2 -19 -2 -25 0 -7 3 -2 5 12 5 14 0
19 -2 13 -5z m-416 -9 c-3 -3 -12 -4 -19 -1 -8 3 -5 6 6 6 11 1 17 -2 13 -5z
m-41 -11 c-3 -4 -12 -8 -19 -9 -7 -1 -20 -5 -29 -9 -10 -4 -18 -4 -18 -1 0 8
39 24 59 25 8 1 11 -2 7 -6z m34 -23 c0 -5 -4 -10 -9 -10 -6 0 -13 5 -16 10
-3 6 1 10 9 10 9 0 16 -4 16 -10z m-95 -9 c14 -6 8 -8 -22 -7 -23 0 -36 4 -30
8 15 9 26 9 52 -1z m65 -6 c14 -8 19 -14 10 -14 -8 0 -24 6 -34 14 -25 19 -9
19 24 0z m70 -5 c12 -8 11 -10 -7 -10 -13 0 -23 5 -23 10 0 13 11 13 30 0z
m-43 -26 c-3 -3 -12 -4 -19 -1 -8 3 -5 6 6 6 11 1 17 -2 13 -5z m78 -14 c-3
-5 -10 -10 -16 -10 -5 0 -9 5 -9 10 0 6 7 10 16 10 8 0 12 -4 9 -10z m-50 -20
c-28 -12 -37 -12 -30 0 3 6 16 10 28 9 21 0 21 -1 2 -9z m972 -6 c-3 -3 -12
-4 -19 -1 -8 3 -5 6 6 6 11 1 17 -2 13 -5z m501 -1 c-10 -2 -28 -2 -40 0 -13
2 -5 4 17 4 22 1 32 -1 23 -4z m95 -10 c-13 -2 -35 -2 -50 0 -16 2 -5 4 22 4
28 0 40 -2 28 -4z m144 -19 c-3 -3 -12 -4 -19 -1 -8 3 -5 6 6 6 11 1 17 -2 13
-5z m408 -94 c180 -51 319 -107 520 -205 186 -92 422 -238 530 -329 61 -52
164 -119 270 -175 92 -50 95 -52 166 -111 140 -118 145 -126 112 -176 -33 -51
-79 -51 -127 1 -45 50 -66 76 -66 83 0 19 -51 54 -153 106 -89 46 -173 100
-197 127 -23 25 -309 224 -375 260 -16 9 -64 35 -105 58 -169 96 -307 157
-545 241 -133 47 -153 58 -133 72 10 7 10 8 -2 5 -8 -2 -14 -10 -12 -16 3 -14
6 -14 -70 5 -83 21 -107 36 -50 32 23 -2 42 0 42 4 0 5 -8 9 -17 9 -17 1 -17
2 0 6 28 7 19 23 -14 23 -16 0 -28 -4 -24 -9 7 -13 -16 -26 -24 -14 -3 6 -13
13 -21 16 -10 4 -8 6 8 6 12 1 22 4 22 9 0 4 19 7 43 5 l42 -2 -35 8 c-19 5
-57 13 -83 19 -27 5 -53 14 -59 20 -13 13 217 -37 357 -78z m-392 63 c-7 -2
-21 -2 -30 0 -10 3 -4 5 12 5 17 0 24 -2 18 -5z m-1916 -9 c-3 -3 -12 -4 -19
-1 -8 3 -5 6 6 6 11 1 17 -2 13 -5z m1986 -11 c-13 -2 -35 -2 -50 0 -16 2 -5
4 22 4 28 0 40 -2 28 -4z m-196 -29 c-3 -3 -12 -4 -19 -1 -8 3 -5 6 6 6 11 1
17 -2 13 -5z m-942 -22 c-3 -3 -11 0 -18 7 -9 10 -8 11 6 5 10 -3 15 -9 12
-12z m92 12 c-3 -3 -12 -4 -19 -1 -8 3 -5 6 6 6 11 1 17 -2 13 -5z m1030 -2
c-9 -2 -17 -7 -17 -11 0 -8 -98 4 -108 13 -2 3 28 4 68 3 41 -1 66 -3 57 -5z
m48 -12 c-3 -5 -18 -9 -33 -9 l-27 1 30 8 c17 4 31 8 33 9 2 0 0 -3 -3 -9z
m-1545 -11 c12 -8 10 -10 -10 -6 -14 3 -41 -1 -60 -9 -35 -13 -34 -13 25 -9
43 3 54 1 40 -6 -16 -7 -12 -8 15 -5 l35 5 -29 -13 c-25 -11 -32 -11 -44 1
-11 10 -17 11 -28 2 -8 -6 -27 -9 -43 -6 -21 4 -31 2 -35 -9 -3 -8 -11 -14
-18 -12 -7 1 -24 -4 -37 -11 -19 -10 -25 -11 -31 -1 -5 8 -15 10 -26 5 -17 -7
-16 -9 6 -15 23 -7 23 -8 3 -9 -12 -1 -25 4 -28 9 -4 7 -12 7 -25 0 -10 -5
-25 -10 -32 -9 -7 0 7 8 32 18 25 10 54 21 65 26 11 4 26 7 34 6 8 -1 17 2 20
7 7 10 118 51 141 51 8 1 22 -4 30 -10z m87 -35 c-3 -3 -12 -4 -19 -1 -8 3 -5
6 6 6 11 1 17 -2 13 -5z m40 -10 c-3 -3 -12 -4 -19 -1 -8 3 -5 6 6 6 11 1 17
-2 13 -5z m-163 -25 c-2 -4 4 -10 13 -12 10 -2 6 -3 -9 -1 -15 2 -34 -3 -42
-11 -27 -28 -183 -88 -199 -78 -6 3 -7 1 -3 -5 4 -7 1 -12 -9 -12 -9 0 -30 -7
-46 -16 -17 -8 -33 -13 -36 -11 -2 3 9 11 25 18 44 19 55 42 32 67 -19 20 -19
20 6 26 13 4 35 4 48 0 13 -3 33 -1 45 5 15 9 29 8 54 -2 27 -12 34 -12 45 -1
7 8 9 14 5 14 -4 0 1 7 11 15 19 14 69 17 60 4z m76 1 c0 -5 -5 -10 -11 -10
-5 0 -7 5 -4 10 3 6 8 10 11 10 2 0 4 -4 4 -10z m-420 -60 c0 -5 -6 -10 -12
-10 -7 0 -24 -3 -38 -6 -22 -4 -21 -3 5 10 37 18 45 19 45 6z m1297 -42 c-3
-7 -5 -2 -5 12 0 14 2 19 5 13 2 -7 2 -19 0 -25z m-1297 12 c0 -5 -4 -10 -10
-10 -5 0 -10 5 -10 10 0 6 5 10 10 10 6 0 10 -4 10 -10z m1560 -226 c0 -129
-3 -233 -7 -231 -8 5 -6 467 2 467 3 0 5 -106 5 -236z m-660 -35 c0 -134 -3
-245 -5 -248 -3 -2 -5 110 -5 249 0 139 3 251 6 248 3 -3 5 -115 4 -249z m799
-16 l-3 -268 34 -17 c19 -9 45 -19 58 -23 l22 -6 0 280 c0 155 3 281 8 281 4
0 7 -126 7 -281 l0 -281 32 -13 c18 -8 42 -15 53 -17 21 -3 21 -1 26 282 3
156 7 286 10 289 2 3 4 -127 4 -289 l-1 -294 53 -12 c29 -7 55 -10 58 -8 2 3
3 108 1 235 -2 162 0 229 8 229 8 0 11 -71 11 -234 l0 -234 53 -4 c28 -2 53
-4 54 -3 1 1 3 119 3 263 1 151 5 264 11 267 5 4 9 -98 9 -264 l0 -271 55 0
55 0 0 250 c0 160 4 250 10 250 6 0 10 -88 10 -245 l0 -246 63 3 62 3 5 210
c3 135 9 208 15 205 6 -3 9 -78 7 -204 l-3 -198 48 7 c26 4 51 9 56 12 4 2 7
76 7 164 0 138 2 159 16 159 14 0 15 -19 12 -155 -2 -85 1 -155 5 -155 5 0 28
5 53 11 l44 11 0 109 c0 90 3 109 15 109 12 0 15 -18 15 -100 0 -55 4 -100 9
-100 5 0 30 9 55 19 40 18 45 24 48 56 2 19 8 34 13 33 6 -2 9 -15 7 -30 -3
-26 -2 -26 36 -16 50 13 95 -7 135 -59 27 -36 27 -38 27 -186 l0 -150 77 77
c46 45 85 76 98 76 16 -1 8 -11 -35 -50 -30 -27 -61 -50 -68 -50 -7 0 -11 -4
-7 -9 3 -6 -11 -26 -30 -46 -33 -32 -36 -40 -33 -83 l3 -47 215 -5 c118 -3
211 -7 205 -8 -5 -2 -103 -3 -217 -3 l-208 1 0 -66 0 -66 265 4 c146 2 265 0
265 -4 0 -5 -119 -8 -265 -8 l-265 0 0 -60 0 -60 313 -2 312 -3 -312 -2 -313
-3 3 -128 2 -127 210 -3 c284 -3 292 -9 13 -11 l-226 -1 -4 -77 c-2 -43 -2
-106 0 -140 l3 -63 68 0 68 0 22 -77 c40 -139 122 -397 137 -432 8 -18 17 -31
20 -28 3 3 18 2 33 -3 l28 -8 61 187 c57 171 61 191 55 248 -3 33 -3 73 1 87
l6 26 171 0 170 0 -3 -102 -3 -103 -35 -3 -35 -3 -139 -382 c-77 -210 -144
-395 -150 -410 -9 -22 -8 -30 4 -38 13 -9 13 -10 -1 -6 -12 4 -21 -6 -33 -36
-42 -109 -128 -157 -280 -157 -67 0 -85 -3 -90 -16 -3 -9 -6 -88 -6 -176 l0
-161 30 38 c17 21 30 42 30 46 0 5 3 8 8 7 4 -1 26 8 49 20 87 45 277 46 369
2 52 -26 109 -95 125 -154 8 -26 11 -128 11 -278 l-1 -238 33 0 c41 0 44 -10
38 -138 l-4 -92 -184 0 -184 0 -1 288 c0 320 -4 344 -58 376 -52 30 -151 26
-196 -9 -19 -14 -39 -34 -44 -43 -5 -10 -12 -100 -14 -200 -4 -178 -4 -181 17
-184 20 -3 21 -9 21 -113 l0 -110 -125 -3 c-69 -2 -162 0 -207 3 l-83 7 0 103
c0 108 5 119 48 110 18 -3 19 6 24 108 3 62 5 252 4 422 l-1 310 -38 3 -38 3
3 102 3 102 118 3 117 3 0 53 0 54 61 -5 60 -6 -7 209 -7 209 -63 170 c-34 94
-65 178 -69 188 -5 11 -18 17 -41 17 l-34 0 0 105 0 105 65 0 65 0 0 631 0
631 -34 34 c-42 42 -72 43 -151 9 -93 -42 -311 -101 -439 -120 -91 -14 -146
-16 -240 -11 -278 16 -459 78 -801 274 -49 29 -95 52 -101 52 -5 0 -61 -29
-122 -64 -62 -36 -115 -65 -117 -65 -3 -1 -40 -18 -83 -39 -112 -56 -189 -85
-203 -76 -7 4 -9 3 -5 -4 7 -12 -60 -34 -186 -59 -102 -20 -350 -23 -458 -4
-105 18 -326 81 -355 101 -29 20 -119 44 -153 41 -19 -2 -71 -58 -77 -84 -2
-12 -4 -222 -2 -467 l2 -445 95 -7 c110 -8 141 -16 197 -51 46 -29 74 -65 105
-134 18 -39 22 -73 26 -186 7 -206 -16 -295 -97 -376 -56 -56 -113 -72 -269
-78 -125 -5 -133 -7 -137 -27 -3 -11 -9 -151 -15 -309 -6 -158 -11 -293 -13
-300 -1 -9 38 -13 148 -17 176 -6 244 -24 310 -82 49 -43 80 -107 94 -199 22
-131 8 -312 -30 -398 -28 -63 -70 -104 -143 -137 -56 -26 -73 -29 -205 -32
l-143 -4 6 -29 c3 -16 1 -29 -4 -29 -6 0 -10 11 -10 24 0 30 -20 36 -122 36
l-78 0 0 -74 c0 -74 0 -75 28 -78 26 -3 27 -6 32 -68 3 -36 3 -86 2 -113 l-4
-47 -226 2 -227 3 -3 112 -3 112 43 3 43 3 3 368 2 367 -45 0 -45 0 0 130 0
130 270 0 c246 0 270 1 278 18 14 26 24 152 23 278 -1 62 3 155 9 208 6 63 6
104 0 121 -10 25 -13 26 -83 24 -39 -1 -78 -4 -84 -7 -9 -3 -13 -29 -13 -82
l0 -79 33 -3 32 -3 0 -90 c0 -49 -3 -98 -7 -107 -7 -16 -27 -18 -228 -18
l-220 0 0 109 0 110 38 3 37 3 3 373 2 372 -40 0 -40 0 -2 103 c-1 102 0 138
5 143 3 4 353 12 525 13 l122 1 0 39 0 38 -182 2 c-100 1 -184 4 -187 7 -2 2
80 4 182 4 l186 0 0 268 c-1 147 -1 337 0 423 l1 156 42 41 c36 36 48 42 85
42 36 0 42 3 40 19 -1 11 3 20 8 21 6 0 11 -11 13 -25 3 -25 54 -60 99 -68 10
-2 32 -10 48 -16 17 -7 46 -15 65 -18 19 -2 44 -8 55 -13 34 -14 87 -30 101
-30 11 0 14 39 14 199 0 123 4 202 10 206 7 4 10 -67 10 -204 l0 -211 24 0
c13 0 38 -3 55 -6 l31 -6 0 235 c0 146 4 238 10 242 8 5 18 -381 12 -457 -2
-19 0 -19 63 -22 l40 -1 3 178 c1 114 6 177 13 177 7 0 9 -59 7 -175 -2 -110
1 -176 7 -178 14 -5 133 2 186 11 l44 8 5 294 5 295 5 -200 c2 -110 3 -239 2
-287 -1 -48 2 -89 7 -92 4 -3 30 3 57 12 l49 18 3 287 c1 170 6 287 12 287 5
0 8 -113 7 -285 -1 -157 -1 -285 0 -285 19 0 130 46 136 57 5 7 12 11 17 8 10
-6 113 43 118 56 2 5 11 9 20 9 22 0 122 58 122 70 0 6 4 9 8 8 4 -2 31 8 59
21 61 28 60 26 62 205 1 72 4 132 7 135 2 2 4 -66 4 -152 l0 -157 33 -14 c18
-7 51 -25 73 -38 68 -43 251 -138 265 -138 12 0 13 45 11 260 -2 187 0 260 8
260 8 0 11 -75 9 -267z m-1721 201 c3 -2 -59 4 -68 6 -3 1 4 5 15 9 12 5 26 4
35 -2 8 -6 16 -12 18 -13z m-71 -20 c0 -8 -14 -22 -30 -30 -16 -9 -26 -11 -23
-5 4 6 0 11 -11 11 -15 0 -16 2 -3 10 9 6 17 5 21 -2 4 -7 11 -3 18 11 14 25
28 28 28 5z m2170 -6 c-3 -8 -6 -5 -6 6 -1 11 2 17 5 13 3 -3 4 -12 1 -19z
m-1587 -253 c0 -146 -4 -265 -8 -265 -4 0 -9 10 -10 23 -4 32 10 507 14 507 2
0 4 -119 4 -265z m-650 211 c0 -2 -7 -7 -16 -10 -8 -3 -12 -2 -9 4 6 10 25 14
25 6z m1189 -310 c-4 -4 -7 54 -6 130 l0 139 6 -130 c3 -71 3 -134 0 -139z
m-675 199 c3 -8 1 -15 -4 -15 -6 0 -10 7 -10 15 0 8 2 15 4 15 2 0 6 -7 10
-15z m813 -82 c-3 -10 -5 -2 -5 17 0 19 2 27 5 18 2 -10 2 -26 0 -35z m-1210
-185 c-1 -40 -3 -8 -3 72 0 80 2 112 3 73 2 -40 2 -106 0 -145z m1213 152 c0
-5 -5 -10 -11 -10 -5 0 -7 5 -4 10 3 6 8 10 11 10 2 0 4 -4 4 -10z m-1340 -20
c0 -5 -4 -10 -10 -10 -5 0 -10 5 -10 10 0 6 5 10 10 10 6 0 10 -4 10 -10z
m4595 -100 c-8 -14 -26 -12 -22 1 1 6 -3 13 -10 16 -9 3 -12 -64 -13 -279 -1
-274 -7 -468 -14 -475 -2 -3 0 765 3 775 1 1 15 -5 31 -13 17 -9 28 -20 25
-25z m-4608 -12 c-3 -7 -5 -2 -5 12 0 14 2 19 5 13 2 -7 2 -19 0 -25z m4598
-363 c-1 -33 -3 -94 -5 -135 l-3 -75 -6 85 c-3 47 -4 175 -1 285 l4 200 6
-150 c3 -82 5 -177 5 -210z m22 293 c-2 -13 -4 -3 -4 22 0 25 2 35 4 23 2 -13
2 -33 0 -45z m-4620 30 c-3 -8 -6 -5 -6 6 -1 11 2 17 5 13 3 -3 4 -12 1 -19z
m673 -98 c0 -5 -4 -10 -10 -10 -5 0 -10 5 -10 10 0 6 5 10 10 10 6 0 10 -4 10
-10z m2700 -43 c0 -15 -60 -90 -67 -83 -6 6 15 47 40 74 24 25 27 27 27 9z
m-3764 -14 c20 -27 16 -38 -6 -18 -20 18 -26 35 -14 35 4 0 13 -8 20 -17z
m-69 -70 c3 -7 -3 -9 -16 -6 -12 3 -21 10 -21 15 0 13 32 6 37 -9z m5080 -285
c-1 -57 -3 -11 -3 102 0 113 2 159 3 103 2 -57 2 -149 0 -205z m-5036 245 c13
-16 12 -17 -3 -4 -10 7 -18 15 -18 17 0 8 8 3 21 -13z m89 -103 c0 -5 -4 -10
-10 -10 -5 0 -10 5 -10 11 0 5 -3 8 -7 6 -5 -3 -9 6 -9 20 l-2 25 19 -21 c10
-11 19 -25 19 -31z m-162 3 c-27 -2 -69 -2 -95 0 -27 2 -5 3 47 3 52 0 74 -1
48 -3z m109 1 c-3 -3 -12 -4 -19 -1 -8 3 -5 6 6 6 11 1 17 -2 13 -5z m3958 -4
c-8 -13 -205 -13 -225 0 -10 7 25 10 108 10 80 0 121 -4 117 -10z m-4012 -137
c-46 -2 -120 -2 -165 0 -46 1 -9 3 82 3 91 0 128 -2 83 -3z m-883 -170 c0 -80
-3 -144 -6 -140 -17 16 -15 287 2 287 2 0 4 -66 4 -147z m-93 5 c-2 -13 -4 -3
-4 22 0 25 2 35 4 23 2 -13 2 -33 0 -45z m5770 0 c-2 -13 -4 -3 -4 22 0 25 2
35 4 23 2 -13 2 -33 0 -45z m267 12 c8 -16 11 -30 6 -30 -4 0 -13 14 -19 30
-5 17 -8 30 -6 30 2 0 10 -13 19 -30z m-5067 14 c-3 -3 -12 -4 -19 -1 -8 3 -5
6 6 6 11 1 17 -2 13 -5z m96 -1 c-13 -2 -35 -2 -50 0 -16 2 -5 4 22 4 28 0 40
-2 28 -4z m4950 -48 c-3 -9 -8 -14 -10 -11 -3 3 -2 9 2 15 9 16 15 13 8 -4z
m-40 -55 c-6 -7 -23 23 -23 40 0 8 6 4 13 -10 8 -14 12 -27 10 -30z m-5976
-52 c-3 -7 -5 -2 -5 12 0 14 2 19 5 13 2 -7 2 -19 0 -25z m1080 26 c-3 -3 -12
-4 -19 -1 -8 3 -5 6 6 6 11 1 17 -2 13 -5z m4610 -41 c-3 -10 -5 -4 -5 12 0
17 2 24 5 18 2 -7 2 -21 0 -30z m126 -62 c17 -30 25 -51 19 -47 -7 4 -21 24
-32 44 -10 20 -19 31 -20 24 0 -7 -4 -11 -9 -7 -5 3 -11 -3 -13 -12 -3 -15 -6
-15 -17 6 -7 13 -8 21 -3 17 20 -12 39 5 35 32 -1 15 0 20 3 12 4 -8 20 -39
37 -69z m-5746 7 c-3 -8 -6 -5 -6 6 -1 11 2 17 5 13 3 -3 4 -12 1 -19z m5677
-55 c14 -29 24 -53 22 -53 -6 0 -56 91 -56 103 0 15 4 8 34 -50z m60 -3 c-7
-6 -24 22 -23 40 0 9 6 5 14 -10 7 -14 11 -27 9 -30z m-602 23 c-95 -2 -248
-2 -340 0 -92 1 -14 3 173 3 187 0 262 -2 167 -3z m572 -8 c3 -8 1 -15 -4 -15
-6 0 -10 7 -10 15 0 8 2 15 4 15 2 0 6 -7 10 -15z m316 -70 c0 -5 -5 -3 -10 5
-5 8 -10 20 -10 25 0 6 5 3 10 -5 5 -8 10 -19 10 -25z m-181 -95 c0 -8 -10 7
-22 33 -13 26 -26 45 -30 40 -5 -4 -5 1 -1 11 6 16 11 11 30 -25 13 -24 23
-51 23 -59z m309 55 c-3 -3 -9 2 -12 12 -6 14 -5 15 5 6 7 -7 10 -15 7 -18z
m-408 -16 c0 -5 -4 -9 -10 -9 -5 0 -10 7 -10 16 0 8 5 12 10 9 6 -3 10 -10 10
-16z m-527 -6 c-13 -2 -35 -2 -50 0 -16 2 -5 4 22 4 28 0 40 -2 28 -4z m557
-7 c0 -3 -4 -8 -10 -11 -5 -3 -10 -1 -10 4 0 6 5 11 10 11 6 0 10 -2 10 -4z
m35 -6 c3 -5 1 -10 -4 -10 -6 0 -11 5 -11 10 0 6 2 10 4 10 3 0 8 -4 11 -10z
m-35 -40 c0 -5 -2 -10 -4 -10 -3 0 -8 5 -11 10 -3 6 -1 10 4 10 6 0 11 -4 11
-10z m7 -42 c-3 -8 -6 -5 -6 6 -1 11 2 17 5 13 3 -3 4 -12 1 -19z m70 -70 c-3
-8 -6 -5 -6 6 -1 11 2 17 5 13 3 -3 4 -12 1 -19z m65 -35 c10 -26 16 -49 14
-51 -2 -2 -7 6 -11 17 -3 12 -10 21 -14 21 -3 0 -7 8 -7 18 -1 9 -5 26 -9 37
-5 11 -4 17 1 12 4 -4 16 -29 26 -54z m-92 26 c0 -6 -4 -7 -10 -4 -5 3 -10 11
-10 16 0 6 5 7 10 4 6 -3 10 -11 10 -16z m50 -76 c-3 -63 -2 -67 15 -53 11 9
12 17 5 30 -12 23 -13 43 -1 36 14 -9 20 -60 9 -73 -6 -7 -8 -23 -6 -36 3 -14
0 -24 -7 -24 -7 0 -10 8 -7 19 2 10 -1 25 -8 33 -14 16 -21 62 -14 88 9 29 16
19 14 -20z m-2784 -28 c140 -27 203 -74 246 -185 17 -45 22 -84 25 -220 3 -99
1 -189 -6 -225 -16 -91 -57 -162 -114 -201 -75 -52 -133 -65 -307 -71 -292
-11 -426 40 -494 187 -19 41 -21 63 -21 265 0 237 3 257 55 339 24 37 43 53
93 77 35 16 90 33 123 38 99 14 315 12 400 -4z m-806 -180 l0 -185 -80 0 -80
0 0 40 c0 37 -2 40 -29 40 -40 0 -92 -39 -120 -90 -21 -38 -25 -60 -29 -171
l-5 -128 34 -3 34 -3 0 -105 0 -105 -190 -3 c-104 -1 -200 0 -212 3 -22 5 -23
10 -23 110 l0 105 40 0 40 0 0 229 0 230 -37 3 -38 3 -3 103 -3 102 176 0 175
0 0 -102 1 -103 21 40 c61 118 146 175 260 175 l68 0 0 -185z m3349 -740 l1
-925 -28 1 c-21 0 -23 2 -9 7 17 7 18 52 17 925 0 573 3 917 9 917 6 0 10
-347 10 -925z m-1789 844 c0 -68 2 -74 43 -130 23 -32 44 -59 47 -59 3 0 25
26 50 58 44 55 45 59 45 127 l0 70 178 3 178 2 -3 -102 -3 -103 -55 -3 -55 -3
-85 -105 c-47 -57 -86 -110 -88 -117 -3 -14 144 -194 185 -227 19 -15 38 -20
67 -18 l41 3 3 -102 c3 -99 2 -103 -20 -108 -13 -3 -93 -4 -178 -3 l-155 3 -5
77 c-5 72 -8 81 -50 137 -25 33 -47 60 -50 60 -3 0 -25 -27 -50 -60 -42 -56
-45 -65 -50 -137 l-5 -77 -155 -3 c-85 -1 -165 0 -177 3 -22 5 -23 10 -23 105
l0 100 54 0 54 0 102 121 c89 107 100 123 87 138 -7 9 -50 60 -96 113 l-82 97
-57 3 -57 3 -1 84 c-2 132 -20 121 187 121 l179 0 0 -71z m1810 30 c0 -5 -4
-9 -10 -9 -5 0 -10 7 -10 16 0 8 5 12 10 9 6 -3 10 -10 10 -16z m340 -90 c11
-40 17 -75 15 -77 -4 -4 -25 66 -25 85 0 6 -5 15 -11 19 -8 5 -10 -3 -7 -24 4
-30 -12 -49 -32 -37 -4 3 -6 -14 -4 -37 l3 -43 -8 39 c-6 29 -4 48 6 70 14 30
14 30 8 4 -3 -16 -1 -28 4 -28 5 0 12 25 16 56 4 31 9 53 12 51 2 -3 13 -38
23 -78z m-313 -1 c-3 -8 -6 -5 -6 6 -1 11 2 17 5 13 3 -3 4 -12 1 -19z m230 0
c-3 -8 -6 -5 -6 6 -1 11 2 17 5 13 3 -3 4 -12 1 -19z m-5910 -50 c-2 -13 -4
-3 -4 22 0 25 2 35 4 23 2 -13 2 -33 0 -45z m5702 5 c0 -25 -1 -25 -8 -8 -5
11 -7 23 -4 28 8 14 13 7 12 -20z m44 -133 c3 -11 1 -18 -4 -14 -5 3 -9 12 -9
20 0 20 7 17 13 -6z m504 -32 c-3 -8 -6 -5 -6 6 -1 11 2 17 5 13 3 -3 4 -12 1
-19z m-1340 -54 c-3 -3 -12 -4 -19 -1 -8 3 -5 6 6 6 11 1 17 -2 13 -5z m872
-44 c0 -9 -4 -8 -9 5 -5 11 -9 27 -9 35 0 9 4 8 9 -5 5 -11 9 -27 9 -35z m39
-225 c0 -25 -2 -24 -9 10 -10 51 -10 92 1 50 4 -16 8 -43 8 -60z m9 -87 c-3
-7 -5 -2 -5 12 0 14 2 19 5 13 2 -7 2 -19 0 -25z m10 -80 c-3 -7 -5 -2 -5 12
0 14 2 19 5 13 2 -7 2 -19 0 -25z m300 -120 c-3 -7 -5 -2 -5 12 0 14 2 19 5
13 2 -7 2 -19 0 -25z m-290 -25 c-3 -10 -5 -2 -5 17 0 19 2 27 5 18 2 -10 2
-26 0 -35z m-5838 -207 c10 -138 15 -150 63 -140 45 9 128 -25 128 -53 0 -23
27 -63 43 -63 9 0 17 -6 17 -13 0 -7 9 -18 20 -25 11 -7 20 -22 20 -33 0 -12
8 -33 18 -47 43 -62 73 -234 52 -297 -6 -19 -16 -35 -21 -35 -5 0 -9 -9 -9
-19 0 -23 -68 -93 -82 -85 -5 3 -17 -1 -26 -9 -16 -14 -132 -29 -132 -17 0 3
-8 6 -17 7 -10 1 -29 4 -42 9 -17 5 -22 4 -17 -4 4 -7 2 -12 -3 -12 -6 0 -11
5 -11 10 0 6 -6 10 -13 10 -7 0 -18 9 -25 20 -7 12 -17 18 -21 15 -5 -3 -12 1
-15 7 -17 38 11 -90 36 -165 16 -49 28 -91 25 -93 -7 -7 -108 243 -128 316 -9
36 -22 77 -27 91 -18 46 -53 271 -57 364 -2 50 -2 77 1 60 8 -57 56 -250 65
-265 6 -10 7 -2 3 23 -5 30 -3 36 8 32 10 -4 19 14 33 72 18 75 50 151 69 165
5 3 14 77 19 164 6 88 12 154 13 149 2 -6 8 -68 13 -139z m3071 81 c74 -39
100 -122 62 -197 -26 -53 -74 -80 -142 -80 -43 0 -66 6 -91 23 -93 62 -90 195
5 252 52 32 109 32 166 2z m-1092 -240 l2 -239 54 50 c65 59 135 82 247 82 97
0 164 -20 217 -66 83 -71 86 -84 92 -379 l5 -260 30 0 30 0 3 -104 c1 -57 -1
-108 -6 -113 -6 -6 -82 -7 -186 -2 l-176 7 0 301 c0 334 0 334 -66 362 -72 30
-165 12 -214 -40 -25 -27 -25 -30 -28 -222 -3 -184 -2 -195 15 -192 16 3 18
-6 18 -107 l0 -110 -140 1 c-77 1 -168 2 -202 3 l-63 1 0 104 c0 109 2 115 48
111 l22 -2 0 424 0 423 -35 0 -35 0 0 105 0 105 183 -2 182 -3 3 -238z m2750
38 c6 -13 12 -58 13 -100 2 -73 5 -83 25 -67 5 4 3 0 -3 -8 -24 -28 -41 8 -50
108 -9 94 -5 111 15 67z m205 -22 c-7 -2 -21 -2 -30 0 -10 3 -4 5 12 5 17 0
24 -2 18 -5z m85 0 c-10 -2 -26 -2 -35 0 -10 3 -2 5 17 5 19 0 27 -2 18 -5z
m-969 -147 c52 -9 98 -19 102 -22 5 -3 9 -63 9 -135 l0 -129 -120 0 -120 0 0
29 c0 54 -18 61 -151 61 -106 0 -121 -2 -139 -20 -20 -20 -26 -65 -12 -86 10
-17 74 -31 167 -39 213 -17 316 -46 367 -102 30 -33 51 -139 44 -222 -11 -136
-74 -209 -204 -237 -117 -24 -442 -15 -599 17 l-53 10 0 135 0 134 120 0 120
0 0 -34 c0 -18 6 -38 13 -43 18 -15 162 -23 236 -14 70 8 91 25 91 71 0 49
-23 58 -191 75 -336 33 -399 78 -399 285 0 169 65 252 221 279 77 14 387 6
498 -13z m-909 -335 l0 -340 28 -3 c25 -3 28 -7 35 -63 4 -33 6 -82 3 -110
l-3 -49 -119 -3 c-66 -2 -161 0 -211 3 l-93 6 0 104 c0 96 2 104 19 104 52 0
51 -4 51 241 l0 229 -45 0 -45 0 0 110 0 110 190 0 190 0 0 -339z m3162 229
c4 21 6 19 7 -10 1 -28 4 -32 12 -20 9 12 12 13 16 1 5 -11 7 -11 14 0 6 10 9
8 9 -8 0 -13 5 -23 10 -23 6 0 10 9 10 20 0 11 4 20 8 20 11 0 -11 -158 -42
-300 -22 -102 -84 -301 -86 -275 0 14 -76 49 -89 41 -15 -10 -14 32 3 90 26
88 35 127 66 284 16 85 33 166 36 180 l7 25 7 -25 7 -25 5 25z m-1407 -250 c8
-13 -105 -13 -125 0 -11 7 5 10 52 10 37 0 70 -4 73 -10z m643 -7 c-10 -2 -28
-2 -40 0 -13 2 -5 4 17 4 22 1 32 -1 23 -4z m-690 -140 c-10 -2 -26 -2 -35 0
-10 3 -2 5 17 5 19 0 27 -2 18 -5z m-3835 -165 c6 -22 5 -22 -8 -4 -17 22 -20
40 -6 32 5 -3 11 -16 14 -28z m31 -76 c11 -26 27 -58 37 -72 9 -14 20 -38 23
-55 6 -27 4 -26 -15 10 -43 81 -59 114 -59 125 0 5 -4 10 -10 10 -5 0 -10 7
-10 15 0 29 15 15 34 -33z m-1036 -37 c-3 -3 -9 2 -12 12 -6 14 -5 15 5 6 7
-7 10 -15 7 -18z m1126 -130 c3 -8 1 -15 -4 -15 -6 0 -10 7 -10 15 0 8 2 15 4
15 2 0 6 -7 10 -15z m3276 -13 c0 -4 -18 -32 -40 -61 -23 -30 -39 -45 -37 -34
4 26 42 74 52 65 5 -4 5 1 2 11 -4 11 -3 16 3 12 6 -3 10 -1 10 4 0 6 2 11 5
11 3 0 5 -3 5 -8z m-104 -141 c0 -11 -4 -17 -8 -15 -4 3 -10 -6 -14 -20 -3
-14 -19 -35 -34 -48 -16 -12 -26 -27 -23 -32 3 -5 1 -6 -4 -3 -6 4 -16 -6 -22
-21 -6 -15 -26 -41 -44 -59 -72 -70 -100 -94 -105 -89 -2 3 4 13 15 23 30 26
209 237 222 262 14 26 17 26 17 2z m-2988 -116 c42 -51 58 -76 49 -81 -6 -4
-9 -4 -6 0 3 3 -13 26 -37 51 -24 24 -44 47 -44 50 0 4 -7 13 -15 21 -14 14
-20 34 -11 34 2 0 31 -34 64 -75z m132 -145 c0 -5 26 -34 57 -65 31 -30 54
-58 50 -62 -4 -3 -7 0 -7 7 0 7 -3 11 -6 7 -3 -3 -21 10 -40 28 -19 19 -34 40
-34 46 0 7 -3 10 -6 7 -7 -7 -54 39 -54 53 0 6 7 6 20 -1 11 -6 20 -15 20 -20z
m2603 -37 c3 -5 -1 -14 -9 -21 -8 -7 -14 -10 -14 -6 0 4 -18 -12 -39 -37 -22
-24 -43 -41 -46 -37 -6 6 83 104 97 107 4 0 9 -2 11 -6z m-2443 -130 c0 12 60
-32 60 -44 0 -5 -5 -9 -12 -9 -6 0 -8 3 -5 6 4 4 -8 14 -25 23 -17 9 -38 27
-46 41 l-14 25 21 -25 c11 -14 21 -21 21 -17z m2310 -7 c0 -3 -13 -14 -29 -26
-21 -14 -32 -17 -37 -9 -4 7 -3 9 2 6 5 -3 21 3 34 14 27 20 30 22 30 15z
m-2176 -108 c-5 -8 -64 50 -64 64 0 3 16 -8 35 -24 19 -17 32 -35 29 -40z
m2034 0 c-3 -7 -13 -15 -24 -17 -16 -3 -17 -1 -5 13 16 19 34 21 29 4z m-80
-66 c-13 -9 -25 -18 -28 -21 -3 -3 -19 -16 -37 -28 -32 -23 -56 -16 -28 7 8 7
15 10 15 7 0 -5 10 3 65 51 6 5 16 7 23 4 9 -3 6 -9 -10 -20z m-1873 8 c4 -6
10 -8 15 -5 5 3 15 -1 22 -9 8 -7 27 -20 43 -29 17 -8 39 -24 50 -34 11 -10
36 -28 55 -40 28 -18 31 -22 13 -20 -12 0 -20 4 -17 8 2 4 -5 10 -16 14 -11 3
-27 14 -37 23 -9 9 -19 17 -22 17 -15 0 -81 45 -81 55 0 6 -3 9 -8 6 -4 -2
-16 2 -27 10 -10 8 -14 14 -8 14 7 0 15 -5 18 -10z m1749 -94 c-10 -8 -21 -12
-24 -10 -5 6 21 24 34 24 6 0 1 -6 -10 -14z m-70 -48 c-3 -4 -9 -8 -15 -8 -5
0 -9 4 -9 8 0 5 7 9 15 9 8 0 12 -4 9 -9z m-1389 -39 c17 -10 23 -19 15 -19
-8 1 -33 12 -55 26 -29 18 -33 24 -15 19 14 -4 39 -16 55 -26z m1345 16 c-7
-9 -15 -13 -19 -10 -3 3 1 10 9 15 21 14 24 12 10 -5z m-49 -35 c-13 -11 -28
-20 -35 -20 -6 0 0 9 14 20 33 26 52 25 21 0z m-1123 -77 c8 -7 27 -17 43 -20
16 -3 32 -10 35 -15 12 -19 -60 4 -107 33 -25 16 -49 29 -53 29 -9 0 -36 26
-36 34 0 9 101 -43 118 -61z m1021 16 c-25 -20 -64 -26 -54 -9 3 6 12 10 19
10 8 0 19 7 26 15 7 8 17 12 22 8 6 -3 1 -14 -13 -24z m-104 -59 c3 -6 -1 -7
-9 -4 -9 3 -16 2 -16 -3 0 -12 -45 -33 -68 -33 -10 0 -1 11 23 25 43 27 60 31
70 15z m-748 -40 c24 -16 48 -30 54 -30 5 0 21 -7 34 -16 14 -9 25 -13 25 -10
0 4 30 -9 68 -28 87 -45 172 -78 172 -67 0 5 8 11 18 14 9 2 26 8 37 12 16 6
14 4 -5 -12 -56 -45 -62 -45 -146 -7 -125 55 -246 117 -280 141 -17 13 -33 20
-36 17 -3 -3 -9 -1 -13 5 -13 21 28 10 72 -19z m641 -15 c-8 -8 -197 -105
-204 -105 -10 0 56 43 95 63 19 9 40 17 46 17 7 0 18 7 25 15 7 8 19 15 28 15
8 0 13 -2 10 -5z"/>
<path d="M6108 8573 c7 -3 16 -2 19 1 4 3 -2 6 -13 5 -11 0 -14 -3 -6 -6z"/>
<path d="M7965 7690 c-13 -6 -15 -9 -5 -9 8 0 22 4 30 9 18 12 2 12 -25 0z"/>
<path d="M4128 8543 c6 -2 18 -2 25 0 6 3 1 5 -13 5 -14 0 -19 -2 -12 -5z"/>
<path d="M4110 8511 c0 -5 9 -7 20 -4 11 3 20 7 20 9 0 2 -9 4 -20 4 -11 0
-20 -4 -20 -9z"/>
<path d="M5975 8283 c11 -3 24 -9 30 -14 5 -5 13 -9 19 -9 5 0 1 7 -10 15 -10
8 -28 14 -39 14 l-20 -1 20 -5z"/>
<path d="M5859 8268 c16 -22 39 -22 65 -3 19 14 18 15 -12 15 -18 0 -32 -5
-32 -11 0 -8 -6 -7 -17 2 -16 13 -17 12 -4 -3z"/>
<path d="M6010 8211 c24 -14 66 -25 55 -13 -5 5 -23 12 -40 16 -20 4 -25 3
-15 -3z"/>
<path d="M3960 8150 c-23 -7 -23 -8 -3 -9 12 -1 23 -7 26 -13 3 -10 7 -10 18
-2 8 7 23 14 34 18 11 3 2 3 -20 0 -29 -3 -36 -2 -25 5 17 12 6 12 -30 1z"/>
<path d="M3070 6161 l0 -161 95 0 c82 0 97 2 102 18 7 18 38 52 48 52 4 0 -3
-13 -14 -29 -11 -15 -18 -31 -14 -35 12 -12 104 -6 132 8 15 8 33 27 39 41 20
43 25 135 10 185 -21 69 -44 76 -237 79 l-161 2 0 -160z m288 47 c2 -75 0 -88
-18 -109 l-22 -24 6 25 c3 14 6 65 6 113 0 66 3 88 13 85 8 -3 13 -33 15 -90z"/>
<path d="M7231 5648 c6 -18 13 -40 16 -48 3 -10 10 -3 18 20 20 53 18 60 -14
60 -29 0 -30 -1 -20 -32z"/>
<path d="M6979 5534 c-2 -50 -1 -58 6 -186 l7 -108 47 0 c52 0 66 10 95 67 21
43 21 43 -18 43 -18 0 -38 6 -44 13 -5 6 -26 55 -47 107 -20 52 -39 97 -41 99
-2 2 -4 -13 -5 -35z"/>
<path d="M3070 4671 l0 -158 38 -6 c20 -4 46 -4 57 -2 11 2 22 4 25 4 3 1 5
73 5 161 l0 160 -62 0 -63 0 0 -159z"/>
<path d="M3216 4822 c-8 -13 -7 -232 2 -277 l7 -40 90 -3 c149 -5 175 19 175
162 0 100 -11 129 -55 151 -36 16 -210 22 -219 7z"/>
<path d="M5081 6017 c-64 -23 -73 -46 -74 -208 -3 -209 17 -234 183 -234 148
0 170 30 170 237 0 157 -12 189 -77 207 -50 14 -159 13 -202 -2z"/>
<path d="M2216 4317 c3 -10 9 -15 12 -12 3 3 0 11 -7 18 -10 9 -11 8 -5 -6z"/>
<path d="M6464 3518 l-19 -23 23 19 c12 11 22 21 22 23 0 8 -8 2 -26 -19z"/>
</g>
</svg>
